<svg width="20" height="22" viewBox="0 0 20 22" fill="none" xmlns="http://www.w3.org/2000/svg">
<path d="M20 15.5388C20 19.434 17.83 21.7561 14.19 21.7561H13C12.45 21.7561 12 21.2746 12 20.686V14.5114C12 14.2225 12.22 13.9764 12.49 13.9764L14.25 13.9443C14.39 13.9336 14.51 13.8266 14.54 13.6767L14.89 11.6328C14.92 11.4402 14.78 11.2583 14.59 11.2583L12.46 11.2904C12.18 11.2904 11.96 11.055 11.95 10.766L11.91 8.14423C11.91 7.97301 12.04 7.8232 12.21 7.8232L14.61 7.78039C14.78 7.78039 14.91 7.64128 14.91 7.45936L14.87 4.89105C14.87 4.70913 14.74 4.57003 14.57 4.57003L11.87 4.61284C10.21 4.64495 8.89 6.1003 8.92 7.8767L8.97 10.8195C8.98 11.1192 8.76 11.3546 8.48 11.3653L7.28 11.3867C7.11 11.3867 6.98001 11.5258 6.98001 11.7077L7.01001 13.741C7.01001 13.9229 7.14 14.062 7.31 14.062L8.51 14.0406C8.79 14.0406 9.01 14.276 9.02 14.5649L9.11 20.6646C9.12 21.2639 8.67 21.7561 8.11 21.7561H5.81C2.17 21.7561 0 19.434 0 15.528V6.57115C0 2.67592 2.17 0.35376 5.81 0.35376H14.19C17.83 0.35376 20 2.67592 20 6.57115V15.5388Z" fill="white"/>
</svg>
