<svg width="20" height="22" viewBox="0 0 20 22" fill="none" xmlns="http://www.w3.org/2000/svg">
<path d="M18.032 5.50417L12.2777 1.1959C10.7093 0.0199382 8.30168 0.0840813 6.79322 1.33487L1.78821 5.51486C0.789212 6.34872 0 8.05921 0 9.40616V16.7826C0 19.5087 2.06794 21.7323 4.61539 21.7323H15.3846C17.9321 21.7323 20 19.5194 20 16.7933V9.54513C20 8.10197 19.1309 6.32734 18.032 5.50417ZM10.7492 17.4561C10.7492 17.8944 10.4096 18.2579 9.99999 18.2579C9.59039 18.2579 9.25073 17.8944 9.25073 17.4561V14.249C9.25073 13.8107 9.59039 13.4472 9.99999 13.4472C10.4096 13.4472 10.7492 13.8107 10.7492 14.249V17.4561Z" fill="white"/>
</svg>
