<svg width="20" height="22" viewBox="0 0 20 22" fill="none" xmlns="http://www.w3.org/2000/svg">
<path d="M14.1971 0.35376H5.8129C2.17108 0.35376 0 2.67708 0 6.57425V15.5356C0 19.4435 2.17108 21.7668 5.8129 21.7668H14.1871C17.8289 21.7668 20 19.4435 20 15.5463V6.57425C20.01 2.67708 17.8389 0.35376 14.1971 0.35376ZM10.005 15.2144C7.86392 15.2144 6.12305 13.3515 6.12305 11.0603C6.12305 8.76909 7.86392 6.90615 10.005 6.90615C12.1461 6.90615 13.8869 8.76909 13.8869 11.0603C13.8869 13.3515 12.1461 15.2144 10.005 15.2144ZM15.9279 5.57855C15.8779 5.70702 15.8079 5.8248 15.7178 5.93186C15.6178 6.02822 15.5077 6.10317 15.3877 6.1567C15.2676 6.21023 15.1375 6.24235 15.0075 6.24235C14.7373 6.24235 14.4872 6.13528 14.2971 5.93186C14.2071 5.8248 14.137 5.70702 14.087 5.57855C14.037 5.45007 14.007 5.31088 14.007 5.1717C14.007 5.03251 14.037 4.89333 14.087 4.76485C14.137 4.62566 14.2071 4.5186 14.2971 4.41153C14.5272 4.16528 14.8774 4.04751 15.1976 4.12246C15.2676 4.13316 15.3276 4.15458 15.3877 4.1867C15.4477 4.20811 15.5077 4.24023 15.5678 4.28306C15.6178 4.31517 15.6678 4.36871 15.7178 4.41153C15.8079 4.5186 15.8779 4.62566 15.9279 4.76485C15.978 4.89333 16.008 5.03251 16.008 5.1717C16.008 5.31088 15.978 5.45007 15.9279 5.57855Z" fill="white"/>
</svg>
