<svg width="20" height="21" viewBox="0 0 20 21" fill="none" xmlns="http://www.w3.org/2000/svg">
<path d="M20 10.8094C20 5.2994 15.51 0.809402 10 0.809402C4.49 0.809402 0 5.2994 0 10.8094C0 13.7094 1.25 16.3194 3.23 18.1494C3.23 18.1594 3.23 18.1594 3.22 18.1694C3.32 18.2694 3.44 18.3494 3.54 18.4394C3.6 18.4894 3.65 18.5394 3.71 18.5794C3.89 18.7294 4.09 18.8694 4.28 19.0094C4.35 19.0594 4.41 19.0994 4.48 19.1494C4.67 19.2794 4.87 19.3994 5.08 19.5094C5.15 19.5494 5.23 19.5994 5.3 19.6394C5.5 19.7494 5.71 19.8494 5.93 19.9394C6.01 19.9794 6.09 20.0194 6.17 20.0494C6.39 20.1394 6.61 20.2194 6.83 20.2894C6.91 20.3194 6.99 20.3494 7.07 20.3694C7.31 20.4394 7.55 20.4994 7.79 20.5594C7.86 20.5794 7.93 20.5994 8.01 20.6094C8.29 20.6694 8.57 20.7094 8.86 20.7394C8.9 20.7394 8.94 20.7494 8.98 20.7594C9.32 20.7894 9.66 20.8094 10 20.8094C10.34 20.8094 10.68 20.7894 11.01 20.7594C11.05 20.7594 11.09 20.7494 11.13 20.7394C11.42 20.7094 11.7 20.6694 11.98 20.6094C12.05 20.5994 12.12 20.5694 12.2 20.5594C12.44 20.4994 12.69 20.4494 12.92 20.3694C13 20.3394 13.08 20.3094 13.16 20.2894C13.38 20.2094 13.61 20.1394 13.82 20.0494C13.9 20.0194 13.98 19.9794 14.06 19.9394C14.27 19.8494 14.48 19.7494 14.69 19.6394C14.77 19.5994 14.84 19.5494 14.91 19.5094C15.11 19.3894 15.31 19.2794 15.51 19.1494C15.58 19.1094 15.64 19.0594 15.71 19.0094C15.91 18.8694 16.1 18.7294 16.28 18.5794C16.34 18.5294 16.39 18.4794 16.45 18.4394C16.56 18.3494 16.67 18.2594 16.77 18.1694C16.77 18.1594 16.77 18.1594 16.76 18.1494C18.75 16.3194 20 13.7094 20 10.8094ZM14.94 15.7794C12.23 13.9594 7.79 13.9594 5.06 15.7794C4.62 16.0694 4.26 16.4094 3.96 16.7794C2.44 15.2394 1.5 13.1294 1.5 10.8094C1.5 6.1194 5.31 2.3094 10 2.3094C14.69 2.3094 18.5 6.1194 18.5 10.8094C18.5 13.1294 17.56 15.2394 16.04 16.7794C15.75 16.4094 15.38 16.0694 14.94 15.7794Z" fill="white"/>
<path d="M10 5.73909C7.93 5.73909 6.25 7.41909 6.25 9.4891C6.25 11.5191 7.84 13.1691 9.95 13.2291H10.04H10.11H10.13C12.15 13.1591 13.74 11.5191 13.75 9.4891C13.75 7.41909 12.07 5.73909 10 5.73909Z" fill="white"/>
</svg>
